<svg width="1376" height="268.124" viewBox="0 0 1376 268.124" fill="none" xmlns="http://www.w3.org/2000/svg">
<g id="&#234;&#176;&#149;&#235;&#131;&#137;&#236;&#157;&#180;.com">
<path d="M9.07391 9.24565H133.084C142.158 9.24565 146.695 13.8685 146.695 23.1141C140.646 97.0792 87.7144 140.226 15.1232 152.553L0 114.03C58.6779 103.551 88.9243 81.978 98.3007 46.2282H12.0985L9.07391 9.24565ZM181.478 0H222.311V50.851H255.582V87.8336H222.311V152.553H181.478V0ZM128.547 268.124C62.005 268.124 28.734 246.55 28.734 211.109C28.734 175.667 62.005 154.094 128.547 154.094C193.577 154.094 228.36 175.667 228.36 211.109C228.36 246.55 193.577 268.124 128.547 268.124ZM128.547 231.141C163.33 231.141 182.99 223.436 182.99 211.109C182.99 198.781 163.33 191.077 128.547 191.077C90.7391 191.077 72.5913 198.781 72.5913 211.109C72.5913 223.436 90.7391 231.141 128.547 231.141Z" fill="#ECC744"/>
<path d="M256.56 9.24565H295.88V93.9974C322.497 92.4564 341.855 88.45 366.959 83.2108L369.984 123.275C340.04 128.823 312.213 133.137 270.171 134.062C261.097 134.062 256.56 129.439 256.56 120.193V9.24565ZM383.595 0H421.403V50.851H444.087V0H481.895V143.307H444.087V87.8336H421.403V135.603H383.595V0ZM382.082 268.124C315.54 268.124 277.732 246.55 277.732 209.568C277.732 172.585 315.54 152.553 382.082 152.553C448.624 152.553 486.432 172.585 486.432 209.568C486.432 246.55 448.624 268.124 382.082 268.124ZM382.082 228.059C421.403 228.059 442.575 221.895 442.575 209.568C442.575 198.781 421.403 192.618 382.082 191.077C342.762 192.618 321.59 198.781 321.59 209.568C321.59 221.895 342.762 228.059 382.082 228.059Z" fill="#ECC744"/>
<path d="M570.588 228.059C522.194 228.059 497.997 192.618 497.997 120.193C497.997 47.7692 522.194 10.7866 570.588 10.7866C617.47 10.7866 641.667 47.7692 641.667 120.193C641.667 192.618 617.47 228.059 570.588 228.059ZM570.588 192.618C591.761 192.618 602.347 167.963 602.347 120.193C602.347 72.4242 591.761 47.7692 570.588 47.7692C547.903 47.7692 537.317 72.4242 537.317 120.193C537.317 167.963 547.903 192.618 570.588 192.618ZM682.5 0H723.332V263.501H682.5V0Z" fill="#ECC744"/>
<path d="M777.242 266.583C762.118 266.583 750.02 254.255 750.02 238.846C750.02 223.436 762.118 211.109 777.242 211.109C792.365 211.109 804.463 223.436 804.463 238.846C804.463 254.255 792.365 266.583 777.242 266.583Z" fill="#ECC744"/>
<path d="M899.247 251.173C852.365 251.173 816.069 214.191 816.069 167.963C816.069 120.193 852.365 86.2927 899.247 86.2927C923.444 86.2927 943.104 95.5383 958.227 112.489L932.518 140.226C923.444 130.98 912.858 126.357 899.247 126.357C876.562 126.357 858.414 143.307 858.414 167.963C858.414 192.618 876.562 211.109 899.247 211.109C912.858 211.109 924.956 204.945 932.518 195.699L959.739 223.436C944.616 240.387 923.444 251.173 899.247 251.173Z" fill="#ECC744"/>
<path d="M1037.9 251.173C991.023 251.173 956.24 214.191 956.24 167.963C956.24 121.734 991.023 86.2927 1037.9 86.2927C1084.79 86.2927 1121.08 121.734 1121.08 167.963C1121.08 214.191 1084.79 251.173 1037.9 251.173ZM1037.9 211.109C1062.1 211.109 1078.74 192.618 1078.74 167.963C1078.74 143.307 1060.59 126.357 1037.9 126.357C1015.22 126.357 998.585 143.307 998.585 167.963C998.585 192.618 1015.22 211.109 1037.9 211.109Z" fill="#ECC744"/>
<path d="M1131 89.3745H1173.35V103.243C1183.94 92.4564 1200.57 86.2927 1217.21 86.2927C1236.87 86.2927 1253.5 93.9974 1264.09 109.407C1276.19 93.9974 1292.82 86.2927 1314 86.2927C1348.78 86.2927 1376 109.407 1376 147.93V248.091H1333.66V154.094C1333.66 135.603 1320.04 124.816 1303.41 124.816C1286.77 124.816 1274.67 135.603 1274.67 154.094V248.091H1232.33V154.094C1232.33 135.603 1220.23 124.816 1203.6 124.816C1186.96 124.816 1173.35 135.603 1173.35 154.094V248.091H1131V89.3745Z" fill="#ECC744"/>
</g>
</svg>
